# This file uses centimeters as units for non-parametric coordinates.

mtllib Mask 01.mtl
g default
v -15.496108 4.804030 1.610186
v -14.805154 3.113996 1.614210
v -13.769742 1.670570 1.151905
v -16.114697 7.432629 1.749885
v -15.027448 6.638423 2.438341
v -13.253062 5.173974 2.697928
v -16.090715 8.413898 1.944499
v -15.057715 7.879155 2.599354
v -13.837914 7.172194 3.088241
v -16.122549 9.615654 1.637623
v -15.284268 9.072090 2.492519
v -13.804379 8.332018 2.590714
v -15.469587 10.695346 1.471449
v -14.656103 10.353597 2.468322
v -13.730909 9.352696 3.362687
v -15.518814 11.380561 1.092754
v -14.323479 11.352590 2.012142
v -13.368754 10.527430 2.793006
v -15.630270 11.859567 0.912346
v -14.485425 11.996824 1.711548
v -13.221099 11.674196 1.963399
v -16.237961 12.172865 0.661075
v -16.966841 12.626705 0.154060
v -17.808472 13.127358 -0.508455
v -15.164032 12.556525 1.149724
v -16.271097 13.093825 0.401874
v -17.601187 13.517333 -0.659086
v -14.127388 12.780923 1.017675
v -15.501428 13.460874 0.218884
v -16.866505 13.742193 -0.497985
v -13.631084 3.204393 1.893119
v -14.931407 5.096178 2.063589
v -15.939436 6.056956 1.702895
v -15.780101 4.690389 1.946759
v -14.999834 2.975096 2.007253
v -15.221867 4.949292 2.499913
v -16.221573 5.959358 2.068061
v -13.919128 1.466040 1.553099
v -13.806520 2.991963 2.373812
v -16.408348 7.365664 2.122677
v -15.323568 6.538588 2.910043
v -15.292151 7.896981 3.115370
v -16.408075 8.372203 2.312544
v -13.426950 5.022791 3.197680
v -14.036756 7.193719 3.635162
v -15.608521 9.113505 2.987455
v -16.505047 9.623866 2.009762
v -13.959362 8.363255 3.157962
v -15.044783 10.448945 2.951723
v -15.737891 10.714791 1.836523
v -13.910931 9.486361 3.924860
v -14.665815 11.427270 2.492018
v -15.767631 11.380942 1.455647
v -13.568051 10.671041 3.322882
v -14.743297 12.040373 2.201867
v -15.887672 11.829070 1.287292
v -13.295398 11.700250 2.426583
v -15.247473 12.645343 1.652917
v -16.410414 12.145702 1.060019
v -16.324673 13.224942 0.863631
v -17.138506 12.637173 0.549067
v -17.679695 13.649038 -0.285945
v -17.998619 13.182863 -0.139326
v -14.056787 12.790946 1.452652
v -15.402663 13.595171 0.609013
v -16.828482 13.956717 -0.139740
v -12.000000 5.641697 3.231722
v -12.000000 6.581638 3.735173
v -12.000000 7.938964 3.310615
v -12.000000 8.821755 3.447023
v -12.000000 9.911641 3.093470
v -12.000000 10.827924 2.497293
v -12.000000 5.452186 3.776863
v -12.000000 6.576628 4.315476
v -12.000000 8.000642 3.893956
v -12.000000 8.897610 4.029625
v -12.000000 10.049424 3.638542
v -12.000000 10.914257 2.964735
v -8.503892 4.804030 1.610186
v -9.194846 3.113996 1.614210
v -10.230259 1.670570 1.151905
v -7.885303 7.432629 1.749885
v -8.972552 6.638423 2.438341
v -10.746939 5.173974 2.697928
v -7.909284 8.413898 1.944499
v -8.942285 7.879155 2.599354
v -10.162086 7.172194 3.088241
v -7.877451 9.615654 1.637623
v -8.715732 9.072090 2.492519
v -10.195621 8.332018 2.590714
v -8.530413 10.695346 1.471449
v -9.343896 10.353597 2.468322
v -10.269091 9.352696 3.362687
v -8.481185 11.380561 1.092754
v -9.676521 11.352590 2.012142
v -10.631247 10.527430 2.793006
v -8.369730 11.859567 0.912346
v -9.514575 11.996824 1.711548
v -10.778902 11.674196 1.963399
v -7.762037 12.172865 0.661075
v -7.033160 12.626705 0.154060
v -6.191528 13.127358 -0.508455
v -8.835968 12.556525 1.149724
v -7.728901 13.093825 0.401874
v -6.398814 13.517333 -0.659086
v -9.872613 12.780923 1.017675
v -8.498572 13.460874 0.218884
v -7.133496 13.742193 -0.497985
v -10.368916 3.204393 1.893119
v -9.068594 5.096178 2.063589
v -8.060563 6.056956 1.702895
v -8.219900 4.690389 1.946759
v -9.000166 2.975096 2.007253
v -8.778133 4.949292 2.499913
v -7.778428 5.959358 2.068061
v -10.080872 1.466040 1.553099
v -10.193480 2.991963 2.373812
v -7.591652 7.365664 2.122677
v -8.676432 6.538588 2.910043
v -8.707849 7.896981 3.115370
v -7.591925 8.372203 2.312544
v -10.573050 5.022791 3.197680
v -9.963244 7.193719 3.635162
v -8.391480 9.113505 2.987455
v -7.494954 9.623866 2.009762
v -10.040640 8.363255 3.157962
v -8.955217 10.448945 2.951723
v -8.262109 10.714791 1.836523
v -10.089069 9.486361 3.924860
v -9.334185 11.427270 2.492018
v -8.232370 11.380942 1.455647
v -10.431949 10.671041 3.322882
v -9.256706 12.040373 2.201867
v -8.112329 11.829070 1.287292
v -10.704602 11.700250 2.426583
v -8.752527 12.645343 1.652917
v -7.589587 12.145702 1.060019
v -7.675328 13.224942 0.863631
v -6.861494 12.637173 0.549067
v -6.320305 13.649038 -0.285945
v -6.001381 13.182863 -0.139326
v -9.943213 12.790946 1.452652
v -8.597338 13.595171 0.609013
v -7.171519 13.956717 -0.139740
vt 0.048543 0.056869
vt 0.040579 0.068828
vt 0.027400 0.075299
vt 0.037843 0.456225
vt 0.269718 0.427278
vt 0.220019 0.498677
vt 0.205617 0.482824
vt 0.257966 0.410634
vt 0.167842 0.539300
vt 0.171911 0.521919
vt 0.581292 0.056998
vt 0.592532 0.046192
vt 0.602328 0.075443
vt 0.589155 0.068984
vt 0.363714 0.426996
vt 0.375232 0.410202
vt 0.428686 0.481750
vt 0.414510 0.497804
vt 0.462956 0.520368
vt 0.467274 0.537690
vt 0.107554 0.120261
vt 0.134534 0.133161
vt 0.127599 0.531314
vt 0.111932 0.511669
vt 0.073535 0.098356
vt 0.086508 0.481394
vt 0.128919 0.059573
vt 0.072169 0.047302
vt 0.076954 0.032720
vt 0.140958 0.048440
vt 0.070253 0.518191
vt 0.188827 0.084465
vt 0.203525 0.077381
vt 0.100699 0.564684
vt 0.246783 0.121755
vt 0.258547 0.109140
vt 0.128486 0.588556
vt 0.168897 0.705804
vt 0.315333 0.147847
vt 0.153908 0.594252
vt 0.187492 0.644296
vt 0.372439 0.109048
vt 0.383770 0.121811
vt 0.211872 0.705799
vt 0.187506 0.767307
vt 0.427246 0.077296
vt 0.441556 0.084513
vt 0.153934 0.817359
vt 0.128513 0.823060
vt 0.100732 0.846938
vt 0.489490 0.048327
vt 0.501206 0.059543
vt 0.070296 0.893439
vt 0.553371 0.032796
vt 0.557877 0.047370
vt 0.316425 0.389806
vt 0.316582 0.412349
vt 0.522207 0.119932
vt 0.530131 0.134869
vt 0.507667 0.145879
vt 0.495348 0.132964
vt 0.556184 0.098164
vt 0.564546 0.112259
vt 0.139813 0.473885
vt 0.417156 0.568111
vt 0.353812 0.570630
vt 0.429005 0.538602
vt 0.377402 0.524719
vt 0.330139 0.626561
vt 0.300347 0.575765
vt 0.130123 0.310242
vt 0.351677 0.705783
vt 0.284045 0.625779
vt 0.251346 0.565231
vt 0.278725 0.523798
vt 0.330157 0.785009
vt 0.295757 0.705789
vt 0.236293 0.636360
vt 0.197584 0.585868
vt 0.225955 0.516955
vt 0.353843 0.840935
vt 0.300377 0.835812
vt 0.284063 0.785801
vt 0.260358 0.705793
vt 0.176000 0.540769
vt 0.501962 0.308391
vt 0.502191 0.273920
vt 0.251378 0.846357
vt 0.417187 0.843440
vt 0.236309 0.775232
vt 0.146306 0.535732
vt 0.507254 0.229543
vt 0.501640 0.357876
vt 0.197611 0.825732
vt 0.494378 0.471894
vt 0.493253 0.183984
vt 0.495981 0.403533
vt 0.497939 0.160237
vt 0.157454 0.470407
vt 0.185484 0.398126
vt 0.154956 0.404277
vt 0.149436 0.358026
vt 0.196026 0.339702
vt 0.148185 0.308891
vt 0.198002 0.291531
vt 0.246821 0.323063
vt 0.148772 0.271894
vt 0.188208 0.245395
vt 0.243874 0.274214
vt 0.316109 0.347815
vt 0.143727 0.225795
vt 0.206213 0.191432
vt 0.253459 0.226825
vt 0.315694 0.287653
vt 0.385140 0.322679
vt 0.154807 0.178755
vt 0.206476 0.148403
vt 0.259105 0.175699
vt 0.315454 0.248508
vt 0.387433 0.273992
vt 0.436297 0.338751
vt 0.433686 0.290828
vt 0.145230 0.150787
vt 0.191508 0.125199
vt 0.315256 0.197170
vt 0.377273 0.226852
vt 0.442949 0.244879
vt 0.447645 0.396854
vt 0.483862 0.307370
vt 0.482830 0.270564
vt 0.154909 0.105749
vt 0.371260 0.175863
vt 0.424262 0.191492
vt 0.487340 0.224677
vt 0.476687 0.468670
vt 0.483211 0.356349
vt 0.104647 0.083100
vt 0.423656 0.148668
vt 0.475662 0.178298
vt 0.478281 0.402568
vt 0.438489 0.125444
vt 0.484883 0.150573
vt 0.474928 0.105845
vt 0.525095 0.083032
vt 0.131037 0.359853
vt 0.320319 0.518670
vt 0.065279 0.112609
vt 0.100000 0.135488
vt 0.122545 0.146504
vt 0.132484 0.161018
vt 0.137328 0.185064
vt 0.123877 0.231223
vt 0.129480 0.275683
vt 0.037484 0.045883
vt 0.056909 0.444353
vt 0.047822 0.550590
vt 0.027400 0.490031
vt 0.084539 0.609053
vt 0.315575 0.129394
vt 0.135842 0.647705
vt 0.135855 0.763910
vt 0.047857 0.861045
vt 0.084561 0.802574
vt 0.027450 0.921609
vt 0.037901 0.955412
vt 0.377444 0.886840
vt 0.320362 0.892902
vt 0.086560 0.930232
vt 0.056969 0.967280
vt 0.111976 0.899951
vt 0.127639 0.880302
vt 0.146345 0.875880
vt 0.176038 0.870837
vt 0.225998 0.894639
vt 0.278767 0.887784
vt 0.495988 0.843653
vt 0.429043 0.872945
vt 0.497385 0.795497
vt 0.562150 0.811503
vt 0.416723 0.767873
vt 0.396853 0.705777
vt 0.416709 0.643677
vt 0.497364 0.616035
vt 0.562125 0.600014
vt 0.495957 0.567879
vt 0.137278 0.405501
vn -0.613340 -0.266249 0.743590
vn -0.301050 -0.340935 0.890580
vn -0.422262 -0.275066 0.863733
vn -0.610190 -0.191653 0.768724
vn -0.271078 -0.345581 0.898382
vn -0.295430 -0.322387 0.899326
vn -0.621412 -0.139874 0.770897
vn -0.467854 -0.214777 0.857312
vn -0.410890 -0.012926 0.911593
vn -0.645854 -0.038093 0.762510
vn -0.345346 -0.288218 0.893122
vn -0.316571 -0.022245 0.948308
vn -0.000000 -0.344674 0.938723
vn -0.000000 -0.079189 0.996860
vn -0.541329 0.097078 0.835188
vn -0.661908 0.287522 0.692250
vn -0.282308 0.022877 0.959051
vn -0.000000 0.057957 0.998319
vn -0.503573 0.317440 0.803521
vn -0.655153 0.428164 0.622455
vn -0.265082 0.051976 0.962824
vn 0.000000 -0.072010 0.997404
vn -0.353773 0.507290 0.785813
vn -0.666572 0.319788 0.673362
vn -0.072491 0.524383 0.848391
vn -0.000000 0.470384 0.882462
vn -0.201273 0.543402 0.814987
vn -0.595154 0.112247 0.795734
vn 0.007710 0.627793 0.778342
vn 0.000000 0.631421 0.775440
vn -0.207000 0.554760 0.805849
vn -0.510329 0.166926 0.843623
vn -0.320551 0.543290 0.775940
vn -0.488357 0.318350 0.812503
vn -0.402553 0.521145 0.752569
vn -0.480249 0.391053 0.785136
vn 0.016827 0.704015 0.709986
vn -0.091897 0.736314 0.670370
vn -0.237313 0.724277 0.647384
vn 0.534006 0.230333 -0.813502
vn 0.548699 0.178115 -0.816826
vn 0.385263 0.261161 -0.885081
vn 0.223528 0.308908 -0.924452
vn 0.241481 0.302074 -0.922192
vn 0.196505 0.313856 -0.928913
vn 0.574684 0.143678 -0.805665
vn 0.598172 0.008797 -0.801319
vn 0.380292 -0.000111 -0.924867
vn 0.444710 0.211906 -0.870246
vn 0.315141 0.005804 -0.949027
vn 0.342662 0.288908 -0.893932
vn 0.000000 0.066582 -0.997781
vn 0.000000 0.357876 -0.933769
vn 0.601719 -0.291058 -0.743787
vn 0.502182 -0.115837 -0.856968
vn 0.278910 -0.029553 -0.959863
vn 0.000000 -0.069190 -0.997604
vn 0.585131 -0.409416 -0.700000
vn 0.470982 -0.313512 -0.824552
vn 0.273698 -0.031691 -0.961293
vn -0.000000 0.091617 -0.995794
vn 0.586954 -0.313297 -0.746545
vn 0.339862 -0.467541 -0.816027
vn 0.079561 -0.490308 -0.867910
vn -0.000000 -0.436917 -0.899502
vn 0.539425 -0.101152 -0.835936
vn 0.224858 -0.506076 -0.832662
vn 0.035787 -0.570374 -0.820605
vn 0.000000 -0.565929 -0.824454
vn 0.474934 -0.189178 -0.859447
vn 0.242299 -0.507432 -0.826924
vn 0.464325 -0.334343 -0.820132
vn 0.328020 -0.522599 -0.786952
vn 0.461415 -0.396132 -0.793836
vn 0.398258 -0.508031 -0.763738
vn 0.041087 -0.675738 -0.735996
vn 0.145106 -0.695651 -0.703572
vn 0.262530 -0.692092 -0.672373
vn -0.734613 -0.275657 -0.619965
vn -0.753182 -0.363427 -0.548306
vn -0.752212 -0.361583 -0.550850
vn -0.734604 -0.274264 -0.620594
vn -0.757437 -0.137227 -0.638324
vn -0.756929 -0.138606 -0.638629
vn -0.768595 -0.394563 -0.503568
vn -0.768595 -0.394563 -0.503568
vn -0.774215 0.129284 -0.619578
vn -0.780186 0.010785 -0.625455
vn -0.780192 0.008949 -0.625476
vn -0.774215 0.129284 -0.619578
vn -0.728416 0.116216 -0.675206
vn -0.706477 -0.205389 -0.677278
vn -0.706477 -0.205389 -0.677278
vn -0.729333 0.001345 -0.684158
vn -0.780293 0.026941 -0.624833
vn -0.750374 0.185127 -0.634561
vn -0.761011 -0.367442 -0.534647
vn -0.763741 -0.360583 -0.535425
vn -0.562922 -0.721294 -0.403551
vn -0.572140 -0.710396 -0.409870
vn -0.408825 -0.882716 -0.231678
vn -0.405128 -0.883072 -0.236759
vn -0.436223 -0.885307 -0.161062
vn -0.434693 -0.884401 -0.169934
vn -0.836808 0.376219 -0.397758
vn -0.836808 0.376219 -0.397758
vn -0.836808 0.376219 -0.397758
vn -0.836808 0.376219 -0.397758
vn -0.440949 -0.887752 -0.132139
vn -0.440949 -0.887752 -0.132139
vn 0.804953 0.592984 -0.020504
vn 0.653741 0.732959 -0.188133
vn 0.748555 0.656806 -0.090948
vn 0.804953 0.592984 -0.020504
vn 0.474816 0.792507 -0.382730
vn 0.530617 0.786544 -0.315903
vn 0.416505 0.792491 -0.445513
vn 0.416505 0.792491 -0.445513
vn -0.212176 0.878668 -0.427695
vn -0.212176 0.878668 -0.427695
vn -0.212176 0.878668 -0.427695
vn -0.212176 0.878668 -0.427695
vn 0.934051 -0.271401 0.232142
vn 0.934051 -0.271401 0.232142
vn 0.934051 -0.271401 0.232142
vn 0.934051 -0.271401 0.232142
vn 0.945835 -0.205830 0.251058
vn 0.945835 -0.205830 0.251058
vn 0.945835 -0.205830 0.251058
vn 0.945835 -0.205830 0.251058
vn 0.000000 0.997782 -0.066561
vn -0.000000 0.997782 -0.066561
vn 0.559782 0.826802 -0.055155
vn 0.559782 0.826802 -0.055155
vn 0.000000 -0.969484 -0.245157
vn 0.000000 -0.969483 -0.245157
vn 0.392184 -0.891815 -0.225516
vn 0.392184 -0.891815 -0.225516
vn 0.613340 -0.266249 0.743589
vn 0.610191 -0.191653 0.768724
vn 0.422262 -0.275065 0.863733
vn 0.301050 -0.340935 0.890580
vn 0.295430 -0.322387 0.899326
vn 0.271078 -0.345581 0.898382
vn 0.621412 -0.139873 0.770897
vn 0.645854 -0.038093 0.762510
vn 0.410890 -0.012926 0.911594
vn 0.467854 -0.214777 0.857312
vn 0.316571 -0.022246 0.948308
vn 0.345346 -0.288218 0.893122
vn 0.661908 0.287521 0.692249
vn 0.541329 0.097078 0.835188
vn 0.282308 0.022877 0.959051
vn 0.655153 0.428164 0.622455
vn 0.503573 0.317440 0.803521
vn 0.265082 0.051976 0.962824
vn 0.666572 0.319790 0.673362
vn 0.353773 0.507290 0.785812
vn 0.072491 0.524382 0.848391
vn 0.595153 0.112245 0.795735
vn 0.201273 0.543402 0.814987
vn -0.007710 0.627793 0.778342
vn 0.510329 0.166926 0.843623
vn 0.207001 0.554758 0.805850
vn 0.488357 0.318349 0.812503
vn 0.320551 0.543290 0.775940
vn 0.480250 0.391052 0.785136
vn 0.402552 0.521145 0.752569
vn -0.016827 0.704015 0.709986
vn 0.091897 0.736314 0.670371
vn 0.237312 0.724277 0.647383
vn -0.534005 0.230332 -0.813502
vn -0.223528 0.308908 -0.924452
vn -0.385262 0.261161 -0.885081
vn -0.548699 0.178115 -0.816826
vn -0.196505 0.313856 -0.928913
vn -0.241481 0.302075 -0.922192
vn -0.574683 0.143678 -0.805665
vn -0.444710 0.211907 -0.870246
vn -0.380291 -0.000111 -0.924867
vn -0.598172 0.008797 -0.801319
vn -0.342662 0.288908 -0.893932
vn -0.315141 0.005804 -0.949027
vn -0.502182 -0.115837 -0.856968
vn -0.601720 -0.291058 -0.743787
vn -0.278910 -0.029553 -0.959863
vn -0.470982 -0.313512 -0.824552
vn -0.585131 -0.409416 -0.700000
vn -0.273698 -0.031691 -0.961293
vn -0.339862 -0.467541 -0.816027
vn -0.586954 -0.313297 -0.746545
vn -0.079561 -0.490308 -0.867910
vn -0.224858 -0.506076 -0.832662
vn -0.539425 -0.101153 -0.835936
vn -0.035787 -0.570374 -0.820605
vn -0.242299 -0.507432 -0.826924
vn -0.474934 -0.189177 -0.859448
vn -0.328020 -0.522598 -0.786953
vn -0.464326 -0.334343 -0.820132
vn -0.398258 -0.508032 -0.763737
vn -0.461415 -0.396134 -0.793835
vn -0.041087 -0.675738 -0.735996
vn -0.145106 -0.695651 -0.703573
vn -0.262530 -0.692091 -0.672375
vn 0.734614 -0.275658 -0.619964
vn 0.734605 -0.274265 -0.620592
vn 0.752212 -0.361582 -0.550850
vn 0.753182 -0.363426 -0.548306
vn 0.757438 -0.137228 -0.638323
vn 0.756930 -0.138607 -0.638627
vn 0.768595 -0.394563 -0.503569
vn 0.768595 -0.394563 -0.503569
vn 0.774215 0.129285 -0.619577
vn 0.774215 0.129285 -0.619577
vn 0.780193 0.008949 -0.625475
vn 0.780187 0.010785 -0.625454
vn 0.728417 0.116217 -0.675206
vn 0.729333 0.001346 -0.684157
vn 0.706478 -0.205388 -0.677278
vn 0.706478 -0.205388 -0.677277
vn 0.780294 0.026942 -0.624833
vn 0.750374 0.185129 -0.634560
vn 0.761013 -0.367440 -0.534647
vn 0.763742 -0.360581 -0.535424
vn 0.562923 -0.721294 -0.403549
vn 0.572141 -0.710396 -0.409869
vn 0.408824 -0.882717 -0.231675
vn 0.405127 -0.883073 -0.236757
vn 0.436223 -0.885307 -0.161063
vn 0.434692 -0.884401 -0.169934
vn 0.836807 0.376222 -0.397757
vn 0.836807 0.376222 -0.397757
vn 0.836807 0.376222 -0.397757
vn 0.836807 0.376222 -0.397757
vn 0.440949 -0.887751 -0.132141
vn 0.440949 -0.887751 -0.132141
vn -0.804952 0.592986 -0.020502
vn -0.804952 0.592986 -0.020502
vn -0.748554 0.656807 -0.090947
vn -0.653740 0.732960 -0.188133
vn -0.530617 0.786544 -0.315903
vn -0.474816 0.792507 -0.382729
vn -0.416505 0.792491 -0.445513
vn -0.416505 0.792491 -0.445513
vn 0.212177 0.878667 -0.427697
vn 0.212177 0.878667 -0.427697
vn 0.212177 0.878667 -0.427697
vn 0.212177 0.878667 -0.427697
vn -0.934051 -0.271401 0.232142
vn -0.934051 -0.271401 0.232142
vn -0.934051 -0.271401 0.232142
vn -0.934051 -0.271401 0.232142
vn -0.945835 -0.205830 0.251059
vn -0.945835 -0.205830 0.251059
vn -0.945835 -0.205830 0.251059
vn -0.945835 -0.205830 0.251059
vn -0.559782 0.826802 -0.055155
vn -0.559782 0.826802 -0.055155
vn -0.392184 -0.891815 -0.225516
vn -0.392184 -0.891815 -0.225516
s 1
g Mask_01 Masks
usemtl initialShadingGroup
f 34/67/1 35/185/2 36/65/3 37/68/4
f 35/185/2 38/184/5 39/183/6 36/65/3
f 40/146/7 41/66/8 42/70/9 43/75/10
f 41/66/8 44/182/11 45/69/12 42/70/9
f 44/182/11 73/181/13 74/72/14 45/69/12
f 43/75/10 42/70/9 46/74/15 47/80/16
f 42/70/9 45/69/12 48/73/17 46/74/15
f 45/69/12 74/72/14 75/77/18 48/73/17
f 47/80/16 46/74/15 49/79/19 50/85/20
f 46/74/15 48/73/17 51/78/21 49/79/19
f 48/73/17 75/77/18 76/84/22 51/78/21
f 50/85/20 49/79/19 52/40/23 53/91/24
f 49/79/19 51/78/21 54/41/25 52/40/23
f 51/78/21 76/84/22 77/44/26 54/41/25
f 53/91/24 52/40/23 55/37/27 56/23/28
f 52/40/23 54/41/25 57/160/29 55/37/27
f 54/41/25 77/44/26 78/38/30 57/160/29
f 56/23/28 55/37/27 58/34/31 59/24/32
f 59/24/32 58/34/31 60/31/33 61/26/34
f 61/26/34 60/31/33 62/4/35 63/155/36
f 55/37/27 57/160/29 64/158/37 58/34/31
f 58/34/31 64/158/37 65/156/38 60/31/33
f 60/31/33 65/156/38 66/157/39 62/4/35
f 36/65/3 39/183/6 44/182/11 41/66/8
f 37/68/4 36/65/3 41/66/8 40/146/7
s 2
f 1/101/40 33/102/41 32/100/42 2/99/43
f 2/99/43 32/100/42 31/7/44 3/10/45
f 4/104/46 7/107/47 8/105/48 5/103/49
f 5/103/49 8/105/48 9/106/50 6/8/51
f 6/8/51 9/106/50 68/110/52 67/56/53
f 7/107/47 10/111/54 11/108/55 8/105/48
f 8/105/48 11/108/55 12/109/56 9/106/50
f 9/106/50 12/109/56 69/114/57 68/110/52
f 10/111/54 13/116/58 14/112/59 11/108/55
f 11/108/55 14/112/59 15/113/60 12/109/56
f 12/109/56 15/113/60 70/119/61 69/114/57
f 13/116/58 16/123/62 17/117/63 14/112/59
f 14/112/59 17/117/63 18/118/64 15/113/60
f 15/113/60 18/118/64 71/125/65 70/119/61
f 16/123/62 19/22/66 20/124/67 17/117/63
f 17/117/63 20/124/67 21/35/68 18/118/64
f 18/118/64 21/35/68 72/39/69 71/125/65
f 19/22/66 22/21/70 25/131/71 20/124/67
f 22/21/70 23/25/72 26/137/73 25/131/71
f 23/25/72 24/2/74 27/1/75 26/137/73
f 20/124/67 25/131/71 28/32/76 21/35/68
f 25/131/71 26/137/73 29/27/77 28/32/76
f 26/137/73 27/1/75 30/28/78 29/27/77
f 32/100/42 5/103/49 6/8/51 31/7/44
f 33/102/41 4/104/46 5/103/49 32/100/42
s 4
f 1/101/79 2/99/80 35/64/81 34/186/82
f 33/102/83 1/101/79 34/186/82 37/145/84
f 2/99/80 3/10/85 38/9/86 35/64/81
f 7/107/87 4/104/88 40/71/89 43/153/90
s 5
f 10/111/91 7/107/92 43/153/93 47/152/94
f 13/116/95 10/111/91 47/152/94 50/151/96
f 16/123/97 13/116/95 50/151/96 53/150/98
f 19/22/99 16/123/97 53/150/98 56/149/100
f 22/21/101 19/22/99 56/149/100 59/148/102
f 23/25/103 22/21/101 59/148/102 61/147/104
s off
f 27/1/105 24/2/106 63/3/107 62/154/108
s 5
f 24/2/109 23/25/103 61/147/104 63/3/110
s 6
f 21/35/111 28/32/112 64/33/113 57/36/114
f 28/32/112 29/27/115 65/30/116 64/33/113
f 29/27/115 30/28/117 66/29/118 65/30/116
s off
f 30/28/119 27/1/120 62/154/121 66/29/122
s 4
f 4/104/88 33/102/83 37/145/84 40/71/89
s off
f 44/5/123 39/6/124 31/7/125 6/8/126
f 39/6/127 38/9/128 3/10/129 31/7/130
s 7
f 78/159/131 72/39/132 21/35/133 57/36/134
s 8
f 67/56/135 73/57/136 44/5/137 6/8/138
s 1
f 112/177/139 115/166/140 114/89/141 113/176/142
f 113/176/142 114/89/141 117/178/143 116/179/144
f 118/167/145 121/175/146 120/82/147 119/81/148
f 119/81/148 120/82/147 123/76/149 122/180/150
f 122/180/150 123/76/149 74/72/14 73/181/13
f 121/175/146 125/174/151 124/88/152 120/82/147
f 120/82/147 124/88/152 126/83/153 123/76/149
f 123/76/149 126/83/153 75/77/18 74/72/14
f 125/174/151 128/173/154 127/94/155 124/88/152
f 124/88/152 127/94/155 129/90/156 126/83/153
f 126/83/153 129/90/156 76/84/22 75/77/18
f 128/173/154 131/172/157 130/48/158 127/94/155
f 127/94/155 130/48/158 132/45/159 129/90/156
f 129/90/156 132/45/159 77/44/26 76/84/22
f 131/172/157 134/171/160 133/49/161 130/48/158
f 130/48/158 133/49/161 135/161/162 132/45/159
f 132/45/159 135/161/162 78/38/30 77/44/26
f 134/171/160 137/170/163 136/50/164 133/49/161
f 137/170/163 139/168/165 138/53/166 136/50/164
f 139/168/165 141/169/167 140/165/168 138/53/166
f 133/49/161 136/50/164 142/163/169 135/161/162
f 136/50/164 138/53/166 143/162/170 142/163/169
f 138/53/166 140/165/168 144/164/171 143/162/170
f 114/89/141 119/81/148 122/180/150 117/178/143
f 115/166/140 118/167/145 119/81/148 114/89/141
s 2
f 79/140/172 80/135/173 110/128/174 111/136/175
f 80/135/173 81/19/176 109/17/177 110/128/174
f 82/129/178 83/121/179 86/122/180 85/130/181
f 83/121/179 84/16/182 87/115/183 86/122/180
f 84/16/182 67/56/53 68/110/52 87/115/183
f 85/130/181 86/122/180 89/127/184 88/134/185
f 86/122/180 87/115/183 90/120/186 89/127/184
f 87/115/183 68/110/52 69/114/57 90/120/186
f 88/134/185 89/127/184 92/133/187 91/139/188
f 89/127/184 90/120/186 93/126/189 92/133/187
f 90/120/186 69/114/57 70/119/61 93/126/189
f 91/139/188 92/133/187 95/138/190 94/142/191
f 92/133/187 93/126/189 96/132/192 95/138/190
f 93/126/189 70/119/61 71/125/65 96/132/192
f 94/142/191 95/138/190 98/141/193 97/61/194
f 95/138/190 96/132/192 99/43/195 98/141/193
f 96/132/192 71/125/65 72/39/69 99/43/195
f 97/61/194 98/141/193 103/143/196 100/58/197
f 100/58/197 103/143/196 104/144/198 101/62/199
f 101/62/199 104/144/198 105/11/200 102/14/201
f 98/141/193 99/43/195 106/47/202 103/143/196
f 103/143/196 106/47/202 107/52/203 104/144/198
f 104/144/198 107/52/203 108/55/204 105/11/200
f 110/128/174 109/17/177 84/16/182 83/121/179
f 111/136/175 110/128/174 83/121/179 82/129/178
s 12
f 79/140/205 112/97/206 113/95/207 80/135/208
f 111/136/209 115/93/210 112/97/206 79/140/205
f 80/135/208 113/95/207 116/20/211 81/19/212
f 85/130/213 121/87/214 118/86/215 82/129/216
s 13
f 88/134/217 125/92/218 121/87/219 85/130/220
f 91/139/221 128/96/222 125/92/218 88/134/217
f 94/142/223 131/98/224 128/96/222 91/139/221
f 97/61/225 134/60/226 131/98/224 94/142/223
f 100/58/227 137/59/228 134/60/226 97/61/225
f 101/62/229 139/63/230 137/59/228 100/58/227
s off
f 105/11/231 140/12/232 141/13/233 102/14/234
s 13
f 102/14/235 141/13/236 139/63/230 101/62/229
s 14
f 99/43/237 135/42/238 142/46/239 106/47/240
f 106/47/240 142/46/239 143/51/241 107/52/242
f 107/52/242 143/51/241 144/54/243 108/55/244
s off
f 108/55/245 144/54/246 140/12/247 105/11/248
s 12
f 82/129/216 118/86/215 115/93/210 111/136/209
s off
f 122/15/249 84/16/250 109/17/251 117/18/252
f 117/18/253 109/17/254 81/19/255 116/20/256
s 7
f 78/159/131 135/42/257 99/43/258 72/39/132
s 8
f 67/56/135 84/16/259 122/15/260 73/57/136
