# This file uses centimeters as units for non-parametric coordinates.

mtllib Mask 02.mtl
g default
v -2.951044 4.668172 1.644310
v -2.368103 3.242332 1.647705
v -1.494551 2.024549 1.257670
v 0.000000 1.178671 1.200374
v 1.494552 2.024549 1.257670
v 2.368081 3.242334 1.647705
v 2.950999 4.668178 1.644310
v -3.472931 6.892567 1.762171
v -2.555647 6.215805 2.343005
v -1.518922 4.980285 2.562012
v -0.000011 4.237358 3.012980
v 1.518845 4.980285 2.562012
v 2.555150 6.215814 2.342989
v 3.471942 6.892595 1.762145
v -3.484345 7.782973 1.926363
v -2.584178 7.299138 2.478848
v -1.552066 6.694709 2.891309
v -0.000056 6.172768 3.437605
v 1.551958 6.694736 2.891189
v 2.583087 7.299159 2.478732
v 3.482577 7.783012 1.926452
v -3.889770 9.112709 1.667459
v -2.891204 8.547003 2.388713
v -1.544155 8.104470 2.471558
v 0.000374 7.905107 3.079654
v 1.543268 8.104464 2.471358
v 2.888961 8.547258 2.388349
v 3.886986 9.112928 1.666721
v -3.744803 10.620406 1.527261
v -2.784656 10.258260 2.368298
v -1.525102 9.722317 3.122853
v 0.000093 9.470203 3.194289
v 1.533324 9.723123 3.119811
v 2.781080 10.257832 2.366368
v 3.730390 10.620263 1.537364
v -3.669395 12.206959 1.207766
v -2.694271 11.856485 1.983431
v -1.478758 11.472638 2.642227
v 0.020462 11.059929 2.911034
v 1.488426 11.471380 2.641504
v 2.690641 11.858654 1.995092
v 3.646209 12.205344 1.224433
v -3.548465 13.777477 1.055560
v -2.726536 13.409985 1.729827
v -1.536459 13.405910 1.942307
v 0.018369 12.370993 2.451219
v 1.726211 13.409394 1.951877
v 2.720043 13.395124 1.745120
v 3.362880 13.783303 1.176293
v -3.741402 15.287126 0.843568
v -3.772218 16.723686 0.415813
v -3.703988 17.853819 -0.143136
v -2.925792 15.203482 1.255830
v -3.133164 16.785755 0.624887
v -3.278450 18.126354 -0.270219
v -2.090616 15.208935 1.144423
v -2.489545 16.712837 0.470503
v -2.811838 17.854906 -0.134302
v 2.281226 15.213270 1.192080
v 2.606195 16.723001 0.505642
v 2.838593 17.855852 -0.125862
v 2.930223 15.247217 1.254832
v 3.131811 16.785383 0.635834
v 3.278358 18.129715 -0.264070
v 3.543624 15.292251 0.946423
v 3.655403 16.733803 0.458854
v 3.676500 17.854818 -0.132866
v 3.324704 5.725245 1.722527
v 2.474554 4.914652 2.026835
v 1.503823 3.318597 1.883014
v 0.000000 2.445220 2.124092
v -1.503848 3.318597 1.883014
v -2.474620 4.914650 2.026835
v -3.325069 5.725235 1.722527
v -3.190641 4.572296 1.928269
v -2.532350 3.125145 1.979306
v -2.719673 4.790726 2.394951
v -3.563100 5.642894 2.030609
v -1.620585 1.851992 1.596147
v -1.665426 3.139375 2.288563
v 0.000000 0.973160 1.507789
v 0.000001 2.213923 2.532676
v 1.620586 1.851994 1.596148
v 1.665406 3.139385 2.288563
v 2.532335 3.125164 1.979304
v 2.719624 4.790778 2.394954
v 3.190610 4.572329 1.928266
v 3.562756 5.642974 2.030607
v -3.720679 6.833314 2.076687
v -2.805476 6.131577 2.740968
v -2.779896 7.300609 2.914197
v -3.740630 7.736696 2.236873
v -1.729415 4.852736 2.983640
v -1.719824 6.702389 3.352733
v -0.000005 4.077369 3.472875
v -0.000034 6.163237 3.927175
v 1.729355 4.852770 2.983637
v 1.719783 6.702476 3.352594
v 2.805029 6.131700 2.740941
v 2.778857 7.300819 2.914062
v 3.719722 6.833480 2.076661
v 3.738872 7.737056 2.237001
v -3.122955 8.531815 2.806279
v -4.142468 9.115146 1.981423
v -1.666974 8.116379 2.950131
v 0.000515 7.918252 3.571814
v 1.666278 8.116583 2.949905
v 3.120773 8.532414 2.805932
v 4.139543 9.115714 1.980817
v -3.025516 10.311526 2.776132
v -3.998245 10.681079 1.835266
v -1.657452 9.729138 3.597144
v 0.000445 9.460296 3.685637
v 1.666465 9.729702 3.593934
v 3.022294 10.310758 2.774093
v 3.984104 10.680367 1.845377
v -2.919700 11.960604 2.388290
v -3.922888 12.275202 1.513929
v -1.581706 11.607946 3.089270
v 0.021131 11.192136 3.367210
v 1.592454 11.605032 3.088706
v 2.920754 11.960244 2.397929
v 3.901688 12.275757 1.528755
v -2.900998 13.514910 2.143498
v -3.791224 13.820055 1.371892
v -1.549692 13.551268 2.333084
v 0.018253 12.520524 2.832875
v 1.743848 13.551098 2.343983
v 2.903962 13.498030 2.154823
v 3.612735 13.828981 1.486571
v -3.019178 15.342278 1.680361
v -3.940018 15.362661 1.180148
v -3.163596 16.985849 1.014460
v -3.905563 16.880413 0.749070
v -3.284206 18.332386 0.044591
v -3.809691 18.048784 0.168290
v -2.041392 15.363268 1.511403
v -2.395901 16.906414 0.799645
v -2.716169 18.067879 0.167940
v 3.028719 15.385891 1.678045
v 2.233159 15.364150 1.559015
v 3.162717 16.985867 1.024790
v 2.508687 16.915947 0.833575
v 3.283898 18.335674 0.050222
v 2.741858 18.068748 0.176006
v 3.750703 15.368236 1.277047
v 3.791983 16.890705 0.790386
v 3.783000 18.049820 0.178209
vt 0.681507 0.050465
vt 0.623330 0.077588
vt 0.662683 0.947570
vt 0.729834 0.947949
vt 0.567331 0.108251
vt 0.596481 0.943051
vt 0.730953 0.035352
vt 0.734067 0.020711
vt 0.507163 0.120975
vt 0.530513 0.949805
vt 0.579326 0.894569
vt 0.657888 0.903683
vt 0.745830 0.047017
vt 0.799870 0.924901
vt 0.443472 0.127352
vt 0.460106 0.950856
vt 0.512837 0.895063
vt 0.380517 0.128019
vt 0.390270 0.955271
vt 0.440697 0.896147
vt 0.323699 0.144697
vt 0.328624 0.935653
vt 0.363914 0.900581
vt 0.283961 0.146503
vt 0.280111 0.130162
vt 0.310573 0.885880
vt 0.233826 0.153620
vt 0.234228 0.930031
vt 0.259601 0.888911
vt 0.188499 0.169996
vt 0.185911 0.914161
vt 0.199407 0.888335
vt 0.127708 0.198530
vt 0.118634 0.184836
vt 0.077050 0.240402
vt 0.063851 0.229879
vt 0.579416 0.210590
vt 0.647623 0.148128
vt 0.658188 0.161108
vt 0.593643 0.220713
vt 0.704412 0.103310
vt 0.716206 0.115525
vt 0.544626 0.302393
vt 0.536741 0.763499
vt 0.745459 0.067058
vt 0.759288 0.073047
vt 0.645341 0.464280
vt 0.578674 0.401331
vt 0.580509 0.683900
vt 0.662229 0.657910
vt 0.703296 0.507125
vt 0.734143 0.641984
vt 0.745708 0.540762
vt 0.759229 0.534453
vt 0.746131 0.559734
vt 0.799824 0.602988
vt 0.626804 0.518369
vt 0.683816 0.550357
vt 0.678129 0.566448
vt 0.619425 0.533562
vt 0.731613 0.570145
vt 0.733604 0.584825
vt 0.570720 0.487007
vt 0.565435 0.503371
vt 0.578243 0.633749
vt 0.659424 0.624178
vt 0.508618 0.480923
vt 0.505920 0.497576
vt 0.512434 0.633356
vt 0.445125 0.475910
vt 0.442668 0.492948
vt 0.440449 0.632384
vt 0.382246 0.476368
vt 0.377917 0.492703
vt 0.363703 0.628107
vt 0.325323 0.460356
vt 0.320398 0.477346
vt 0.310377 0.642862
vt 0.285583 0.458998
vt 0.287214 0.590831
vt 0.259397 0.639897
vt 0.235389 0.452435
vt 0.229887 0.468298
vt 0.199204 0.640558
vt 0.189902 0.436553
vt 0.183192 0.451242
vt 0.119896 0.422461
vt 0.128821 0.408670
vt 0.077725 0.367344
vt 0.064641 0.378009
vt 0.128229 0.840709
vt 0.030789 0.304124
vt 0.097292 0.764529
vt 0.206806 0.841097
vt 0.128104 0.688298
vt 0.180852 0.764460
vt 0.285721 0.838020
vt 0.206681 0.687783
vt 0.265318 0.764390
vt 0.345362 0.839499
vt 0.285605 0.690724
vt 0.337901 0.764304
vt 0.415236 0.832125
vt 0.345261 0.689162
vt 0.402384 0.764256
vt 0.494716 0.831991
vt 0.415181 0.696016
vt 0.476576 0.763347
vt 0.494570 0.695982
vt 0.731095 0.914781
vt 0.730825 0.613390
vt 0.203454 0.193135
vt 0.137150 0.235207
vt 0.261600 0.191976
vt 0.213317 0.236768
vt 0.111485 0.303689
vt 0.046437 0.304040
vt 0.308847 0.191098
vt 0.286890 0.237341
vt 0.190451 0.303266
vt 0.137873 0.371892
vt 0.360623 0.177491
vt 0.346503 0.233414
vt 0.268815 0.302855
vt 0.214011 0.369517
vt 0.204607 0.413253
vt 0.434571 0.180758
vt 0.418230 0.240176
vt 0.341337 0.302512
vt 0.287572 0.368177
vt 0.262753 0.413782
vt 0.502086 0.174651
vt 0.494246 0.236307
vt 0.408965 0.302193
vt 0.347246 0.371478
vt 0.310001 0.414145
vt 0.564201 0.157592
vt 0.480905 0.302760
vt 0.418984 0.364430
vt 0.361923 0.427159
vt 0.631135 0.116384
vt 0.495140 0.367728
vt 0.435863 0.423202
vt 0.690990 0.077988
vt 0.503483 0.428563
vt 0.565156 0.445768
vt 0.633827 0.489600
vt 0.691974 0.527755
vt 0.228149 0.137819
vt 0.287503 0.937951
vt 0.677343 0.033921
vt 0.616668 0.062039
vt 0.561554 0.092122
vt 0.503652 0.104376
vt 0.440724 0.110365
vt 0.375945 0.111745
vt 0.318573 0.127766
vt 0.785406 0.946337
vt 0.759954 0.040046
vt 0.789577 0.899873
vt 0.734726 0.881300
vt 0.663491 0.862298
vt 0.581145 0.836322
vt 0.562437 0.302624
vt 0.593202 0.391649
vt 0.714529 0.494416
vt 0.655703 0.451187
vt 0.759992 0.566956
vt 0.789395 0.626949
vt 0.233954 0.598816
vt 0.281916 0.475382
vt 0.729642 0.585084
vt 0.785211 0.582743
vt 0.661823 0.589469
vt 0.595858 0.594056
vt 0.530060 0.579469
vt 0.459635 0.578247
vt 0.389918 0.573382
vt 0.328339 0.593094
vt 0.124115 0.649563
vt 0.185665 0.614753
vt 0.065334 0.690605
vt 0.030789 0.764583
vt 0.065455 0.838504
vt 0.124303 0.879451
vt 0.181630 0.155381
vn -0.613340 -0.266249 0.743590
vn -0.338947 -0.348806 0.873756
vn -0.515297 -0.284348 0.808465
vn -0.610306 -0.191405 0.768694
vn -0.328180 -0.510951 0.794498
vn -0.359743 -0.407030 0.839590
vn 0.000001 -0.566137 0.824311
vn 0.000002 -0.501658 0.865066
vn 0.328183 -0.510947 0.794500
vn 0.359750 -0.407018 0.839593
vn 0.338954 -0.348792 0.873759
vn 0.515323 -0.284250 0.808483
vn 0.613361 -0.266171 0.743600
vn 0.610364 -0.191174 0.768706
vn -0.620407 -0.140498 0.771593
vn -0.513155 -0.179142 0.839393
vn -0.408546 -0.006157 0.912717
vn -0.625719 -0.088035 0.775065
vn -0.397303 -0.269712 0.877158
vn -0.330061 0.001654 0.943958
vn 0.000011 -0.333529 0.942740
vn 0.000001 -0.048907 0.998803
vn 0.397332 -0.269666 0.877159
vn 0.330199 0.001660 0.943910
vn 0.513262 -0.178929 0.839373
vn 0.408696 -0.005860 0.912652
vn 0.620472 -0.140137 0.771606
vn 0.625782 -0.087343 0.775092
vn -0.477375 -0.037348 0.877906
vn -0.636206 0.053888 0.769635
vn -0.269360 -0.006501 0.963018
vn 0.000285 0.024694 0.999695
vn 0.269574 -0.006342 0.962959
vn 0.477676 -0.036764 0.877767
vn 0.635726 0.054045 0.770020
vn -0.507469 0.111537 0.854421
vn -0.630756 0.153348 0.760678
vn -0.258281 0.019235 0.965879
vn 0.000299 -0.016097 0.999870
vn 0.259661 0.017263 0.965545
vn 0.508467 0.109430 0.854100
vn 0.632459 0.150969 0.759740
vn -0.468704 0.224033 0.854474
vn -0.626262 0.158612 0.763307
vn -0.205144 0.284335 0.936520
vn 0.000492 0.279692 0.960090
vn 0.204121 0.280622 0.937863
vn 0.480319 0.217144 0.849790
vn 0.633882 0.162888 0.756082
vn -0.356464 0.231959 0.905057
vn -0.586485 0.120263 0.800982
vn -0.137591 0.317035 0.938380
vn -0.001186 0.364483 0.931210
vn 0.156820 0.303349 0.939886
vn 0.380907 0.223491 0.897196
vn 0.605244 0.124477 0.786247
vn -0.204079 0.295493 0.933293
vn -0.487770 0.202264 0.849217
vn -0.078537 0.437524 0.895771
vn -0.354269 0.371870 0.858025
vn -0.033170 0.542401 0.839465
vn -0.247838 0.506696 0.825734
vn 0.067246 0.364459 0.928788
vn 0.205479 0.462274 0.862602
vn 0.197616 0.552035 0.810065
vn 0.214498 0.294859 0.931155
vn -0.051353 0.354492 0.933648
vn 0.076918 0.445153 0.892145
vn -0.210481 0.468441 0.858057
vn 0.032486 0.545703 0.837349
vn -0.200452 0.554936 0.807381
vn 0.506505 0.203864 0.837790
vn 0.356513 0.384871 0.851336
vn 0.249722 0.509578 0.823389
vn 0.534006 0.230332 -0.813502
vn 0.548906 0.177713 -0.816774
vn 0.467263 0.267470 -0.842690
vn 0.250421 0.314156 -0.915749
vn 0.343342 0.383513 -0.857342
vn 0.315213 0.465973 -0.826747
vn -0.000001 0.473553 -0.880765
vn 0.000000 0.518541 -0.855053
vn -0.343345 0.383502 -0.857345
vn -0.315214 0.465969 -0.826748
vn -0.467284 0.267379 -0.842706
vn -0.250423 0.314147 -0.915751
vn -0.548957 0.177498 -0.816787
vn -0.534025 0.230265 -0.813508
vn 0.573381 0.145464 -0.806272
vn 0.578207 0.075038 -0.812432
vn 0.372565 0.000168 -0.928006
vn 0.483661 0.178373 -0.856887
vn 0.333602 -0.012736 -0.942628
vn 0.404056 0.266679 -0.874998
vn 0.000001 0.041495 -0.999139
vn -0.000008 0.334328 -0.942457
vn -0.333744 -0.012753 -0.942578
vn -0.404081 0.266633 -0.875000
vn -0.372702 -0.000124 -0.927951
vn -0.483755 0.178173 -0.856875
vn -0.578236 0.074346 -0.812475
vn -0.573432 0.145125 -0.806297
vn 0.592557 -0.059630 -0.803319
vn 0.442049 0.033081 -0.896381
vn 0.263398 0.006067 -0.964668
vn -0.000305 -0.025352 -0.999679
vn -0.263648 0.005875 -0.964601
vn -0.442268 0.032458 -0.896295
vn -0.591835 -0.059646 -0.803850
vn 0.588798 -0.156362 -0.793012
vn 0.486771 -0.108454 -0.866771
vn 0.257408 -0.010552 -0.966245
vn -0.000303 0.025902 -0.999665
vn -0.258733 -0.008494 -0.965912
vn -0.487666 -0.106163 -0.866551
vn -0.590143 -0.153866 -0.792500
vn 0.589421 -0.156055 -0.792609
vn 0.456656 -0.215572 -0.863130
vn 0.212747 -0.272304 -0.938397
vn -0.000410 -0.267944 -0.963434
vn -0.211402 -0.267867 -0.939977
vn -0.469109 -0.207600 -0.858393
vn -0.595229 -0.159735 -0.787520
vn 0.554965 -0.115528 -0.823812
vn 0.357467 -0.218780 -0.907939
vn 0.167453 -0.294197 -0.940961
vn 0.001457 -0.331875 -0.943322
vn -0.190219 -0.277833 -0.941608
vn -0.385300 -0.207132 -0.899244
vn -0.568928 -0.119514 -0.813657
vn 0.449786 -0.201989 -0.869996
vn 0.208105 -0.284450 -0.935831
vn 0.315568 -0.365590 -0.875649
vn 0.079008 -0.422172 -0.903066
vn 0.218942 -0.489811 -0.843890
vn 0.035452 -0.520405 -0.853183
vn -0.029784 -0.356756 -0.933723
vn -0.179643 -0.451794 -0.873848
vn -0.179149 -0.533240 -0.826777
vn 0.002771 -0.344113 -0.938924
vn -0.219082 -0.283360 -0.933654
vn 0.180812 -0.458759 -0.869970
vn -0.075797 -0.431322 -0.899008
vn 0.180205 -0.537026 -0.824093
vn -0.034231 -0.524661 -0.850623
vn -0.459208 -0.206746 -0.863935
vn -0.308919 -0.382549 -0.870761
vn -0.216948 -0.494490 -0.841673
vn -0.734614 -0.275658 -0.619964
vn -0.753182 -0.363426 -0.548305
vn -0.752212 -0.361582 -0.550849
vn -0.734605 -0.274265 -0.620592
vn -0.757447 -0.136873 -0.638388
vn -0.756934 -0.138275 -0.638695
vn -0.768596 -0.394563 -0.503568
vn -0.768596 -0.394563 -0.503568
vn -0.433046 -0.738515 -0.516785
vn -0.433046 -0.738515 -0.516785
vn -0.433046 -0.738515 -0.516785
vn -0.433046 -0.738515 -0.516785
vn 0.433046 -0.738516 -0.516784
vn 0.433046 -0.738515 -0.516784
vn 0.433046 -0.738515 -0.516784
vn 0.433046 -0.738516 -0.516784
vn 0.768602 -0.394553 -0.503567
vn 0.753186 -0.363417 -0.548306
vn 0.752216 -0.361571 -0.550852
vn 0.768602 -0.394553 -0.503567
vn 0.734643 -0.275569 -0.619969
vn 0.734634 -0.274175 -0.620597
vn 0.757505 -0.136567 -0.638385
vn 0.756990 -0.137977 -0.638693
vn -0.782697 0.097477 -0.614723
vn -0.782693 -0.000325 -0.622407
vn -0.782620 -0.002195 -0.622496
vn -0.782697 0.097477 -0.614723
vn 0.782716 0.000240 -0.622379
vn 0.782659 0.098235 -0.614650
vn 0.782659 0.098235 -0.614650
vn 0.782643 -0.001639 -0.622468
vn -0.760809 -0.150029 -0.631396
vn -0.720083 -0.330520 -0.610113
vn -0.720083 -0.330520 -0.610113
vn -0.759394 -0.159216 -0.630850
vn 0.720488 -0.330296 -0.609756
vn 0.761302 -0.144702 -0.632045
vn 0.759939 -0.154001 -0.631487
vn 0.720488 -0.330296 -0.609756
vn -0.777117 -0.038888 -0.628154
vn -0.777108 -0.038478 -0.628190
vn 0.775676 -0.031342 -0.630353
vn 0.775673 -0.030819 -0.630382
vn -0.780176 -0.043537 -0.624044
vn -0.780221 -0.042559 -0.624054
vn 0.769524 0.016021 -0.638417
vn 0.769350 0.017881 -0.638578
vn -0.809347 -0.077217 -0.582233
vn -0.810163 -0.079984 -0.580723
vn 0.590851 0.757072 -0.278814
vn 0.590851 0.757072 -0.278814
vn 0.590851 0.757072 -0.278814
vn 0.590851 0.757072 -0.278814
vn -0.553445 0.783553 -0.282390
vn -0.553445 0.783553 -0.282390
vn -0.553445 0.783553 -0.282390
vn -0.553445 0.783553 -0.282390
vn 0.794830 -0.017692 -0.606574
vn 0.795735 -0.021795 -0.605253
vn -0.869282 -0.141662 -0.473583
vn -0.871141 -0.140520 -0.470497
vn -0.925644 -0.103048 -0.364093
vn -0.927101 -0.101929 -0.360685
vn -0.528887 0.668847 -0.522420
vn -0.528887 0.668847 -0.522420
vn -0.528887 0.668847 -0.522420
vn -0.528887 0.668847 -0.522420
vn -0.948369 -0.083952 -0.305857
vn -0.948369 -0.083952 -0.305857
vn 0.966393 0.220035 -0.132923
vn 0.965975 0.174223 -0.191152
vn 0.966186 0.177626 -0.186904
vn 0.966393 0.220035 -0.132923
vn 0.951195 0.104078 -0.290508
vn 0.951031 0.103760 -0.291160
vn 0.938796 0.082321 -0.334494
vn 0.938796 0.082321 -0.334494
vn 0.490151 0.686252 -0.537412
vn 0.490151 0.686252 -0.537412
vn 0.490151 0.686252 -0.537412
vn 0.490151 0.686252 -0.537412
vn -0.970902 0.157670 -0.180250
vn -0.966156 0.225323 -0.125588
vn -0.966156 0.225323 -0.125588
vn -0.970806 0.162587 -0.176355
vn -0.961441 0.053753 -0.269707
vn -0.961320 0.053293 -0.270230
vn -0.513651 0.672319 -0.533056
vn -0.513651 0.672319 -0.533056
vn -0.513651 0.672319 -0.533056
vn -0.513651 0.672319 -0.533056
vn -0.951531 0.020761 -0.306850
vn -0.951531 0.020761 -0.306850
vn 0.859622 -0.172334 -0.480989
vn 0.861455 -0.172651 -0.477585
vn 0.922187 -0.167100 -0.348782
vn 0.923753 -0.166274 -0.345013
vn 0.949124 -0.150960 -0.276360
vn 0.949124 -0.150960 -0.276360
vn 0.556074 0.650832 -0.516914
vn 0.556074 0.650832 -0.516914
vn 0.556074 0.650832 -0.516914
vn 0.556074 0.650832 -0.516914
s 1
g Mask_02 Masks
usemtl initialShadingGroup
f 75/31/1 76/185/2 77/32/3 78/28/4
f 76/185/2 79/184/5 80/91/6 77/32/3
f 79/184/5 81/183/7 82/93/8 80/91/6
f 81/183/7 83/182/9 84/95/10 82/93/8
f 83/182/9 85/180/11 86/84/12 84/95/10
f 85/180/11 87/181/13 88/170/14 86/84/12
f 89/150/15 90/29/16 91/26/17 92/22/18
f 90/29/16 93/94/19 94/97/20 91/26/17
f 93/94/19 95/96/21 96/99/22 94/97/20
f 95/96/21 97/98/23 98/101/24 96/99/22
f 97/98/23 99/81/25 100/78/26 98/101/24
f 99/81/25 101/80/27 102/179/28 100/78/26
f 92/22/18 91/26/17 103/23/29 104/19/30
f 91/26/17 94/97/20 105/100/31 103/23/29
f 94/97/20 96/99/22 106/102/32 105/100/31
f 96/99/22 98/101/24 107/104/33 106/102/32
f 98/101/24 100/78/26 108/75/34 107/104/33
f 100/78/26 102/179/28 109/178/35 108/75/34
f 104/19/30 103/23/29 110/20/36 111/16/37
f 103/23/29 105/100/31 112/103/38 110/20/36
f 105/100/31 106/102/32 113/105/39 112/103/38
f 106/102/32 107/104/33 114/107/40 113/105/39
f 107/104/33 108/75/34 115/72/41 114/107/40
f 108/75/34 109/178/35 116/177/42 115/72/41
f 111/16/37 110/20/36 117/17/43 118/10/44
f 110/20/36 112/103/38 119/106/45 117/17/43
f 112/103/38 113/105/39 120/108/46 119/106/45
f 113/105/39 114/107/40 121/109/47 120/108/46
f 114/107/40 115/72/41 122/69/48 121/109/47
f 115/72/41 116/177/42 123/176/49 122/69/48
f 118/10/44 117/17/43 124/11/50 125/6/51
f 117/17/43 119/106/45 126/163/52 124/11/50
f 119/106/45 120/108/46 127/44/53 126/163/52
f 120/108/46 121/109/47 128/49/54 127/44/53
f 121/109/47 122/69/48 129/65/55 128/49/54
f 122/69/48 123/176/49 130/175/56 129/65/55
f 125/6/51 124/11/50 131/12/57 132/3/58
f 132/3/58 131/12/57 133/110/59 134/4/60
f 134/4/60 133/110/59 135/14/61 136/158/62
f 124/11/50 126/163/52 137/162/63 131/12/57
f 131/12/57 137/162/63 138/161/64 133/110/59
f 133/110/59 138/161/64 139/160/65 135/14/61
f 128/49/54 129/65/55 140/66/66 141/50/67
f 141/50/67 140/66/66 142/111/68 143/52/69
f 143/52/69 142/111/68 144/56/70 145/169/71
f 129/65/55 130/175/56 146/174/72 140/66/66
f 140/66/66 146/174/72 147/172/73 142/111/68
f 142/111/68 147/172/73 148/173/74 144/56/70
f 86/84/12 88/170/14 101/80/27 99/81/25
f 84/95/10 86/84/12 99/81/25 97/98/23
f 82/93/8 84/95/10 97/98/23 95/96/21
f 80/91/6 82/93/8 95/96/21 93/94/19
f 77/32/3 80/91/6 93/94/19 90/29/16
f 78/28/4 77/32/3 90/29/16 89/150/15
s 2
f 1/30/75 74/27/76 73/112/77 2/33/78
f 2/33/78 73/112/77 72/113/79 3/35/80
f 3/35/80 72/113/79 71/116/81 4/117/82
f 4/117/82 71/116/81 70/121/83 5/89/84
f 5/89/84 70/121/83 69/126/85 6/88/86
f 6/88/86 69/126/85 68/82/87 7/85/88
f 8/24/89 15/21/90 16/118/91 9/114/92
f 9/114/92 16/118/91 17/119/93 10/115/94
f 10/115/94 17/119/93 18/124/95 11/120/96
f 11/120/96 18/124/95 19/130/97 12/125/98
f 12/125/98 19/130/97 20/136/99 13/131/100
f 13/131/100 20/136/99 21/76/101 14/79/102
f 15/21/90 22/18/103 23/122/104 16/118/91
f 16/118/91 23/122/104 24/123/105 17/119/93
f 17/119/93 24/123/105 25/129/106 18/124/95
f 18/124/95 25/129/106 26/135/107 19/130/97
f 19/130/97 26/135/107 27/140/108 20/136/99
f 20/136/99 27/140/108 28/73/109 21/76/101
f 22/18/103 29/15/110 30/127/111 23/122/104
f 23/122/104 30/127/111 31/128/112 24/123/105
f 24/123/105 31/128/112 32/134/113 25/129/106
f 25/129/106 32/134/113 33/139/114 26/135/107
f 26/135/107 33/139/114 34/143/115 27/140/108
f 27/140/108 34/143/115 35/70/116 28/73/109
f 29/15/110 36/9/117 37/132/118 30/127/111
f 30/127/111 37/132/118 38/133/119 31/128/112
f 31/128/112 38/133/119 39/138/120 32/134/113
f 32/134/113 39/138/120 40/142/121 33/139/114
f 33/139/114 40/142/121 41/145/122 34/143/115
f 34/143/115 41/145/122 42/67/123 35/70/116
f 36/9/117 43/5/124 44/137/125 37/132/118
f 37/132/118 44/137/125 45/37/126 38/133/119
f 38/133/119 45/37/126 46/43/127 39/138/120
f 39/138/120 46/43/127 47/48/128 40/142/121
f 40/142/121 47/48/128 48/146/129 41/145/122
f 41/145/122 48/146/129 49/63/130 42/67/123
f 43/5/124 50/2/131 53/141/132 44/137/125
f 50/2/131 51/1/133 54/144/134 53/141/132
f 51/1/133 52/7/135 55/13/136 54/144/134
f 44/137/125 53/141/132 56/38/137 45/37/126
f 53/141/132 54/144/134 57/41/138 56/38/137
f 54/144/134 55/13/136 58/45/139 57/41/138
f 47/48/128 59/47/140 62/147/141 48/146/129
f 59/47/140 60/51/142 63/148/143 62/147/141
f 60/51/142 61/53/144 64/55/145 63/148/143
f 48/146/129 62/147/141 65/57/146 49/63/130
f 62/147/141 63/148/143 66/58/147 65/57/146
f 63/148/143 64/55/145 67/61/148 66/58/147
f 69/126/85 13/131/100 14/79/102 68/82/87
f 70/121/83 12/125/98 13/131/100 69/126/85
f 71/116/81 11/120/96 12/125/98 70/121/83
f 72/113/79 10/115/94 11/120/96 71/116/81
f 73/112/77 9/114/92 10/115/94 72/113/79
f 74/27/76 8/24/89 9/114/92 73/112/77
s 4
f 1/30/149 2/33/150 76/34/151 75/186/152
f 74/27/153 1/30/149 75/186/152 78/149/154
f 2/33/150 3/35/155 79/36/156 76/34/151
s off
f 3/35/157 4/117/158 81/92/159 79/36/160
f 4/117/161 5/89/162 83/90/163 81/92/164
s 5
f 5/89/165 6/88/166 85/87/167 83/90/168
f 6/88/166 7/85/169 87/86/170 85/87/167
f 7/85/169 68/82/171 88/83/172 87/86/170
s 4
f 15/21/173 8/24/174 89/25/175 92/157/176
s 5
f 14/79/177 21/76/178 102/77/179 101/171/180
s 6
f 22/18/181 15/21/182 92/157/183 104/156/184
s 7
f 21/76/185 28/73/186 109/74/187 102/77/188
s 6
f 29/15/189 22/18/181 104/156/184 111/155/190
s 7
f 28/73/186 35/70/191 116/71/192 109/74/187
s 6
f 36/9/193 29/15/189 111/155/190 118/154/194
s 7
f 35/70/191 42/67/195 123/68/196 116/71/192
s 6
f 43/5/197 36/9/193 118/154/194 125/153/198
s off
f 46/43/199 45/37/200 126/40/201 127/164/202
f 47/48/203 46/43/204 127/164/205 128/165/206
s 7
f 42/67/195 49/63/207 130/64/208 123/68/196
s 6
f 50/2/209 43/5/197 125/153/198 132/152/210
f 51/1/211 50/2/209 132/152/210 134/151/212
s off
f 55/13/213 52/7/214 136/8/215 135/159/216
s 6
f 52/7/217 51/1/211 134/151/212 136/8/218
s 8
f 45/37/219 56/38/220 137/39/221 126/40/222
f 56/38/220 57/41/223 138/42/224 137/39/221
f 57/41/223 58/45/225 139/46/226 138/42/224
s off
f 58/45/227 55/13/228 135/159/229 139/46/230
s 9
f 59/47/231 47/48/232 128/165/233 141/167/234
f 60/51/235 59/47/231 141/167/234 143/166/236
s off
f 64/55/237 61/53/238 145/54/239 144/168/240
s 9
f 61/53/241 60/51/235 143/166/236 145/54/242
s 7
f 49/63/207 65/57/243 146/60/244 130/64/208
f 65/57/243 66/58/245 147/59/246 146/60/244
f 66/58/245 67/61/247 148/62/248 147/59/246
s off
f 67/61/249 64/55/250 144/168/251 148/62/252
s 5
f 68/82/171 14/79/177 101/171/180 88/83/172
s 4
f 8/24/174 74/27/153 78/149/154 89/25/175
